# xmcd
#
# Track frame offsets:
# 150
# 21498
# 45591
# 60963
# 82385
# 99050
# 125012
# 144475
# 165337
# 187427
# 202335
# 223113
#
# Disc length: 3474 seconds
#
#
# Revision: 0
# Processed by: cddbd v1.5.1PL0 Copyright (c) Steve Scherf et al.
# Submitted via: FreeRIP 2.51 
#
DISCID=b50d900c
DTITLE=Cross Canadian Ragweed - Purple
DYEAR=1900
DGENRE=Country
TTITLE0=Anywhere But Here
TTITLE1=17
TTITLE2=Brooklyn Kid
TTITLE3=Don't Need You
TTITLE4=Walls Of Huntsville
TTITLE5=Broken
TTITLE6=Constantly
TTITLE7=Suicide Blues
TTITLE8=Other Side
TTITLE9=On A Cloud
TTITLE10=Carry You Home
TTITLE11=Freedom
EXTD=
EXTT0=
EXTT1=
EXTT2=
EXTT3=
EXTT4=
EXTT5=
EXTT6=
EXTT7=
EXTT8=
EXTT9=
EXTT10=
EXTT11=
PLAYORDER=
